<?xml version="1.0" encoding="utf-8"?>
<!-- Generator: Adobe Illustrator 21.0.0, SVG Export Plug-In . SVG Version: 6.00 Build 0)  -->
<!DOCTYPE svg PUBLIC "-//W3C//DTD SVG 1.1//EN" "http://www.w3.org/Graphics/SVG/1.1/DTD/svg11.dtd">
<svg version="1.1" id="Layer_1" xmlns="http://www.w3.org/2000/svg" xmlns:xlink="http://www.w3.org/1999/xlink" x="0px" y="0px"
	 viewBox="0 0 165.24 45" style="enable-background:new 0 0 165.24 45;" xml:space="preserve">
<g id="ets">
	<path style="fill:#222222;" d="M135.83,20.96c0,0.17,0,0.34,0,0.53c0,0.19-0.01,0.39-0.03,0.6h-13.64c0.02,0.83,0.19,1.6,0.49,2.33
		c0.3,0.73,0.73,1.37,1.27,1.91c0.54,0.54,1.17,0.97,1.9,1.29c0.73,0.32,1.51,0.48,2.36,0.48c1.24,0,2.31-0.29,3.22-0.87
		c0.9-0.58,1.59-1.24,2.06-2l1.79,1.41c-0.98,1.25-2.07,2.15-3.25,2.69c-1.18,0.54-2.46,0.81-3.82,0.81c-1.22,0-2.35-0.22-3.39-0.65
		c-1.04-0.44-1.94-1.04-2.69-1.82c-0.75-0.78-1.34-1.7-1.78-2.76c-0.43-1.06-0.65-2.21-0.65-3.46c0-1.25,0.21-2.4,0.63-3.46
		c0.42-1.06,1.01-1.98,1.76-2.76c0.75-0.78,1.63-1.38,2.64-1.82c1.01-0.44,2.1-0.65,3.27-0.65c1.29,0,2.43,0.22,3.41,0.65
		c0.98,0.44,1.8,1.02,2.46,1.77c0.66,0.74,1.15,1.61,1.49,2.6C135.66,18.76,135.83,19.83,135.83,20.96z M133.4,20.18
		c-0.07-1.56-0.57-2.85-1.49-3.87c-0.93-1.02-2.25-1.54-3.96-1.54c-0.8,0-1.54,0.15-2.22,0.44c-0.68,0.3-1.28,0.7-1.79,1.2
		c-0.52,0.51-0.93,1.08-1.23,1.73c-0.3,0.65-0.48,1.33-0.53,2.03H133.4z"/>
	<path style="fill:#222222;" d="M148.38,15.2h-4.64v9.65c0,0.61,0.06,1.12,0.18,1.52c0.12,0.4,0.29,0.71,0.51,0.94
		c0.22,0.22,0.49,0.38,0.79,0.46c0.3,0.08,0.63,0.12,0.98,0.12c0.33,0,0.67-0.05,1.04-0.14c0.36-0.09,0.71-0.22,1.04-0.39l0.11,2.09
		c-0.42,0.16-0.86,0.29-1.32,0.37c-0.46,0.08-0.96,0.12-1.49,0.12c-0.45,0-0.91-0.06-1.41-0.18c-0.49-0.12-0.95-0.34-1.37-0.67
		c-0.42-0.33-0.77-0.78-1.04-1.34c-0.27-0.57-0.4-1.31-0.4-2.23V15.2h-3.41v-2.01h3.41V8.52h2.39v4.67h4.64V15.2z"/>
	<path style="fill:#222222;" d="M162.42,17.1c-0.35-0.68-0.88-1.24-1.6-1.68c-0.72-0.44-1.53-0.65-2.44-0.65
		c-0.42,0-0.84,0.05-1.27,0.14c-0.42,0.09-0.8,0.25-1.13,0.46c-0.33,0.21-0.59,0.48-0.79,0.81c-0.2,0.33-0.3,0.72-0.3,1.17
		c0,0.78,0.32,1.37,0.95,1.78c0.63,0.41,1.63,0.76,2.99,1.04c1.95,0.4,3.38,0.98,4.31,1.75c0.93,0.77,1.39,1.8,1.39,3.09
		c0,0.94-0.18,1.74-0.55,2.39c-0.36,0.65-0.84,1.18-1.42,1.59c-0.59,0.41-1.25,0.71-1.99,0.88c-0.74,0.18-1.48,0.27-2.23,0.27
		c-1.24,0-2.45-0.26-3.62-0.78c-1.17-0.52-2.13-1.33-2.88-2.44l1.9-1.41c0.42,0.73,1.04,1.34,1.86,1.84
		c0.82,0.5,1.72,0.74,2.71,0.74c0.52,0,1.01-0.05,1.48-0.14c0.47-0.09,0.88-0.26,1.23-0.49c0.35-0.24,0.63-0.54,0.84-0.9
		c0.21-0.37,0.32-0.82,0.32-1.36c0-0.87-0.42-1.53-1.25-1.96c-0.83-0.44-2.03-0.84-3.6-1.22c-0.49-0.12-1.01-0.26-1.56-0.44
		c-0.55-0.18-1.06-0.44-1.53-0.78c-0.47-0.34-0.86-0.77-1.16-1.29c-0.3-0.52-0.46-1.17-0.46-1.94c0-0.85,0.16-1.57,0.49-2.17
		c0.33-0.6,0.77-1.1,1.32-1.48c0.55-0.39,1.18-0.68,1.88-0.87c0.7-0.19,1.43-0.28,2.18-0.28c1.15,0,2.26,0.26,3.34,0.78
		c1.08,0.52,1.89,1.25,2.43,2.19L162.42,17.1z"/>
</g>
<g id="cbtnu">
	<path style="fill:#222222;" d="M77.52,29.72c-0.05-0.45-0.08-0.94-0.11-1.49c-0.02-0.54-0.04-0.99-0.04-1.34h-0.07
		c-0.47,0.97-1.23,1.75-2.29,2.35c-1.05,0.6-2.17,0.9-3.34,0.9c-2.09,0-3.65-0.62-4.69-1.87c-1.04-1.25-1.56-2.9-1.56-4.95V13.18
		h2.39v9.15c0,0.87,0.07,1.66,0.21,2.37c0.14,0.71,0.38,1.31,0.72,1.82c0.34,0.51,0.8,0.9,1.37,1.18c0.57,0.28,1.29,0.42,2.16,0.42
		c0.63,0,1.25-0.13,1.85-0.39c0.6-0.26,1.13-0.65,1.6-1.18c0.47-0.53,0.84-1.2,1.13-2.01c0.28-0.81,0.42-1.77,0.42-2.88v-8.48h2.39
		v12.9c0,0.45,0.01,1.03,0.04,1.73c0.02,0.71,0.06,1.34,0.11,1.91H77.52z"/>
	<path style="fill:#222222;" d="M48.98,13.18c0.05,0.45,0.08,0.94,0.11,1.48c0.02,0.54,0.03,0.99,0.03,1.34h0.07
		c0.47-0.97,1.23-1.75,2.29-2.35c1.05-0.6,2.17-0.9,3.34-0.9c2.09,0,3.65,0.62,4.69,1.87c1.04,1.25,1.56,2.9,1.56,4.95v10.14h-2.39
		v-9.15c0-0.87-0.07-1.66-0.21-2.37c-0.14-0.71-0.38-1.31-0.72-1.82c-0.34-0.51-0.8-0.9-1.37-1.18c-0.57-0.28-1.3-0.42-2.16-0.42
		c-0.63,0-1.25,0.13-1.85,0.39c-0.6,0.26-1.13,0.65-1.6,1.18c-0.47,0.53-0.84,1.2-1.13,2.01c-0.28,0.81-0.42,1.77-0.42,2.88v8.48
		h-2.39v-12.9c0-0.45-0.01-1.03-0.03-1.73c-0.02-0.71-0.06-1.34-0.11-1.91H48.98z"/>
	<g>
		<path style="fill:#666766;" d="M14.54,27.29c-0.64,0.78-1.46,1.37-2.44,1.76c-0.98,0.39-1.99,0.59-3,0.59
			c-1.18,0-2.25-0.21-3.21-0.63c-0.95-0.42-1.78-1.01-2.46-1.74c-0.68-0.74-1.21-1.61-1.57-2.6c-0.37-0.99-0.55-2.07-0.55-3.2
			c0-1.14,0.19-2.21,0.56-3.2c0.37-0.99,0.91-1.86,1.58-2.6c0.68-0.73,1.5-1.32,2.46-1.74c0.95-0.42,2.02-0.63,3.18-0.63
			c0.43,0,0.88,0.04,1.33,0.12c0.46,0.08,0.92,0.2,1.37,0.37c0.45,0.17,0.88,0.38,1.28,0.63c0.4,0.25,0.77,0.55,1.09,0.88l0.08,0.08
			l0.46-0.53l-0.06-0.07c-0.69-0.73-1.54-1.27-2.52-1.63c-0.98-0.35-1.99-0.53-3.02-0.53c-1.23,0-2.38,0.22-3.42,0.66
			c-1.04,0.44-1.95,1.06-2.7,1.84c-0.75,0.78-1.34,1.72-1.75,2.8c-0.41,1.08-0.62,2.27-0.62,3.54c0,1.27,0.21,2.46,0.62,3.54
			c0.41,1.08,1,2.03,1.75,2.81c0.75,0.78,1.65,1.4,2.69,1.83c1.03,0.44,2.19,0.66,3.44,0.66c1.11,0,2.21-0.21,3.28-0.63
			c1.07-0.42,1.98-1.06,2.68-1.91l0.06-0.07l-0.52-0.49L14.54,27.29z"/>
		<path style="fill:#666766;" d="M27.33,22.03c-0.42-0.35-0.88-0.62-1.37-0.8c-0.35-0.13-0.68-0.23-1-0.29
			c0.3-0.09,0.6-0.21,0.9-0.35c0.41-0.2,0.78-0.46,1.11-0.78c0.33-0.32,0.59-0.71,0.78-1.16c0.19-0.45,0.29-0.98,0.29-1.58
			c0-0.78-0.15-1.43-0.46-1.95c-0.3-0.51-0.7-0.92-1.2-1.23c-0.49-0.3-1.05-0.52-1.67-0.65c-0.62-0.12-1.25-0.19-1.87-0.19h-4.59
			v16.76h5.15c0.58,0,1.2-0.07,1.82-0.2c0.64-0.13,1.23-0.37,1.75-0.7c0.53-0.33,0.97-0.8,1.31-1.38c0.34-0.58,0.51-1.33,0.51-2.24
			c0-0.75-0.14-1.4-0.42-1.94C28.1,22.84,27.75,22.38,27.33,22.03z M22.81,20.68h-3.86v-6.93h3.74c0.61,0,1.2,0.06,1.76,0.17
			c0.55,0.11,1.04,0.3,1.47,0.56c0.42,0.26,0.76,0.61,1.01,1.04c0.25,0.44,0.38,0.98,0.38,1.63c0,0.62-0.13,1.16-0.39,1.6
			c-0.26,0.44-0.61,0.81-1.03,1.09c-0.42,0.28-0.91,0.49-1.45,0.63C23.91,20.61,23.36,20.68,22.81,20.68z M18.95,29.17v-7.82h4.46
			c0.52,0,1.06,0.07,1.6,0.22c0.55,0.15,1.05,0.38,1.5,0.7c0.45,0.32,0.83,0.74,1.12,1.25c0.29,0.51,0.44,1.14,0.44,1.87
			c0,0.67-0.13,1.25-0.37,1.72c-0.25,0.47-0.59,0.87-1.02,1.17c-0.43,0.3-0.95,0.53-1.56,0.67c-0.61,0.15-1.27,0.22-1.98,0.22H18.95
			z"/>
		<polygon style="fill:#666766;" points="30.43,13.08 30.43,13.74 36.04,13.74 36.04,29.83 36.75,29.83 36.75,13.74 42.36,13.74
			42.36,13.08 		"/>
	</g>
</g>
<g id="circles">
	<path style="fill:#E7B529;" d="M91.7,26.16c3.85-0.34,6.71-3.74,6.37-7.59c-0.34-3.85-3.74-6.7-7.59-6.37
	c-3.85,0.34-6.71,3.74-6.37,7.59C84.45,23.64,87.85,26.5,91.7,26.16"/>
	<path style="fill:#E7B529;" d="M95.68,27.84c-2.88,0-5.23,2.35-5.23,5.23c0,2.88,2.34,5.23,5.23,5.23c2.88,0,5.23-2.35,5.23-5.23
	C100.91,30.19,98.56,27.84,95.68,27.84"/>
	<path style="fill:#E7B529;" d="M97.98,12.31c1.04-0.09,1.81-1.01,1.72-2.04c-0.09-1.04-1.01-1.81-2.05-1.71
	c-1.04,0.09-1.8,1.01-1.71,2.04C96.03,11.63,96.95,12.4,97.98,12.31"/>
	<path style="fill:#E7B529;" d="M117.94,30.68c-0.33-3.85-3.74-6.71-7.59-6.37c-3.85,0.33-6.71,3.74-6.37,7.59
	c0.34,3.85,3.74,6.71,7.59,6.37S118.27,34.53,117.94,30.68"/>
	<path style="fill:#E7B529;" d="M111.6,17.41c0-2.88-2.34-5.23-5.23-5.23c-2.88,0-5.23,2.34-5.23,5.23c0,2.88,2.35,5.23,5.23,5.23
	C109.25,22.63,111.6,20.29,111.6,17.41"/>
	<path style="fill:#E7B529;" d="M112.43,12.31c1.04-0.09,1.81-1.01,1.72-2.04c-0.09-1.04-1.01-1.81-2.05-1.71
	c-1.04,0.09-1.8,1.01-1.71,2.04C110.48,11.63,111.39,12.4,112.43,12.31"/>
</g>
</svg>
